<svg width="597" height="119" viewBox="0 0 597 119" fill="none" xmlns="http://www.w3.org/2000/svg">
<path d="M394.749 89.1035C393.135 89.1035 391.844 87.7988 391.844 86.1679C391.844 84.537 393.135 83.2322 394.749 83.2322C396.364 83.2322 397.655 84.537 397.655 86.1679C397.655 87.7988 396.364 89.1035 394.749 89.1035ZM392.167 110.197V91.2418H397.332V110.197H392.167Z" fill="#1B3C6F"/>
<path d="M401.135 110.197V91.2418H406.3V92.6915C407.699 91.4955 409.493 90.8794 411.502 90.8794C415.878 90.8794 418.963 93.9963 418.963 98.4541V110.197H413.762V99.1789C413.762 96.8594 412.291 95.3735 410.031 95.3735C408.417 95.3735 407.161 95.9896 406.3 97.1494V110.197H401.135Z" fill="#1B3C6F"/>
<path d="M431.159 110.487C426.891 110.487 424.667 108.53 424.667 104.724V95.5909H420.828V91.2418H424.667V86.3491L429.832 85.2256V91.2418H435.177V95.5909H429.832V103.673C429.832 105.413 430.514 106.065 432.415 106.065C433.348 106.065 434.065 105.956 435.034 105.63V109.907C433.957 110.233 432.236 110.487 431.159 110.487Z" fill="#1B3C6F"/>
<path d="M446.578 110.559C440.874 110.559 436.462 106.246 436.462 100.737C436.462 95.2285 440.695 90.9157 446.147 90.9157C451.564 90.9157 455.51 95.2648 455.51 101.172V102.477H441.735C442.416 104.652 444.353 106.174 446.829 106.174C448.443 106.174 449.878 105.63 450.846 104.688L454.254 107.768C451.923 109.726 449.627 110.559 446.578 110.559ZM441.663 98.7803H450.416C449.842 96.642 448.12 95.1923 446.04 95.1923C443.887 95.1923 442.237 96.5695 441.663 98.7803Z" fill="#1B3C6F"/>
<path d="M458.447 110.197V91.2418H463.612V93.2714C464.832 91.6767 466.518 90.8069 468.599 90.8069C469.639 90.8432 470.177 90.9157 470.679 91.2418V95.8084C469.962 95.4822 469.029 95.2648 468.096 95.2648C466.195 95.2648 464.581 96.2795 463.612 97.9829V110.197H458.447Z" fill="#1B3C6F"/>
<path d="M473.335 117.59V91.2418H478.429V92.764C479.936 91.568 481.729 90.9519 483.666 90.9519C489.011 90.9519 493.244 95.2648 493.244 100.737C493.244 106.174 488.975 110.45 483.523 110.45C481.693 110.45 479.972 109.943 478.501 109.037V117.59H473.335ZM482.805 106.029C485.855 106.029 488.15 103.745 488.15 100.737C488.15 97.7292 485.819 95.446 482.805 95.446C481.084 95.446 479.577 96.0258 478.501 97.1494V104.325C479.541 105.376 481.119 106.029 482.805 106.029Z" fill="#1B3C6F"/>
<path d="M496.141 110.197V84.8269L501.306 83.9933V110.197H496.141Z" fill="#1B3C6F"/>
<path d="M511.064 110.523C507.046 110.523 504.248 108.131 504.248 104.688C504.248 101.064 507.082 98.9615 511.925 98.9615C513.503 98.9615 515.01 99.1789 516.445 99.6501V98.4179C516.445 96.2795 515.117 95.2285 512.57 95.2285C511.028 95.2285 509.27 95.6997 506.867 96.7869L505.001 92.909C507.979 91.5318 510.705 90.8794 513.467 90.8794C518.597 90.8794 521.538 93.4164 521.538 97.9105V110.197H516.445V108.928C514.866 110.052 513.18 110.523 511.064 110.523ZM509.162 104.579C509.162 105.92 510.418 106.79 512.463 106.79C514.005 106.79 515.333 106.427 516.445 105.666V102.984C515.261 102.549 514.005 102.368 512.642 102.368C510.454 102.368 509.162 103.202 509.162 104.579Z" fill="#1B3C6F"/>
<path d="M526.769 118.025C525.908 118.025 525.047 117.953 524.509 117.808V113.314C525.047 113.422 525.513 113.458 526.267 113.458C528.024 113.458 529.316 112.625 529.997 110.922L530.213 110.378L522.895 91.2418H528.634L533.154 103.854L538.32 91.2418H543.916L535.306 111.538C533.333 116.249 531.002 118.025 526.769 118.025Z" fill="#1B3C6F"/>
<path d="M554.51 110.559C548.807 110.559 544.394 106.246 544.394 100.737C544.394 95.2285 548.627 90.9157 554.08 90.9157C559.497 90.9157 563.443 95.2648 563.443 101.172V102.477H549.668C550.349 104.652 552.286 106.174 554.761 106.174C556.376 106.174 557.811 105.63 558.779 104.688L562.187 107.768C559.855 109.726 557.559 110.559 554.51 110.559ZM549.596 98.7803H558.349C557.775 96.642 556.053 95.1923 553.972 95.1923C551.82 95.1923 550.17 96.5695 549.596 98.7803Z" fill="#1B3C6F"/>
<path d="M566.379 110.197V91.2418H571.545V93.2714C572.765 91.6767 574.451 90.8069 576.531 90.8069C577.572 90.8432 578.11 90.9157 578.612 91.2418V95.8084C577.894 95.4822 576.962 95.2648 576.029 95.2648C574.128 95.2648 572.514 96.2795 571.545 97.9829V110.197H566.379Z" fill="#1B3C6F"/>
<path d="M588.652 110.559C585.172 110.559 582.123 109.653 579.971 107.986L582.482 104.47C584.742 105.956 586.607 106.609 588.58 106.609C590.696 106.609 592.06 105.884 592.06 104.76C592.06 103.854 591.378 103.347 589.835 103.093L586.212 102.549C582.482 101.97 580.509 100.049 580.509 96.9682C580.509 93.2714 583.522 90.9157 588.401 90.9157C591.127 90.9157 593.817 91.713 596.149 93.2714L593.674 96.642C591.629 95.4097 589.8 94.8298 587.898 94.8298C586.212 94.8298 585.1 95.5184 585.1 96.5332C585.1 97.5118 585.782 97.9829 587.54 98.2366L591.163 98.8165C594.893 99.3239 596.938 101.281 596.938 104.253C596.938 107.877 593.387 110.559 588.652 110.559Z" fill="#1B3C6F"/>
<path d="M83.154 0H24.3932C10.9212 0 0 10.9212 0 24.3932V83.154C0 96.626 10.9212 107.547 24.3932 107.547H83.154C96.626 107.547 107.547 96.626 107.547 83.154V24.3932C107.547 10.9212 96.626 0 83.154 0Z" fill="url(#paint0_linear_6701_6373)"/>
<path d="M55.1372 28.9908H28.0586V54.8673H55.1372V28.9908Z" fill="#38D981"/>
<path d="M55.1372 54.8055H28.0586V80.682H55.1372V54.8055Z" fill="#E8973F"/>
<path d="M55.1328 28.991H72.1908C77.7241 28.991 82.2114 33.477 82.2114 39.0087V59.5143C82.2114 65.046 77.7241 69.532 72.1908 69.532H55.1328V28.991Z" fill="#46B6ED"/>
<path d="M482.592 6.85604C477.765 6.78798 474.15 10.2035 474.132 14.8442C474.107 19.6024 477.499 22.888 482.456 22.8942C487.383 22.9066 490.868 19.5962 490.862 14.8999C490.855 10.3211 487.365 6.9241 482.599 6.85604H482.592ZM475.629 28.9519V72.1163H489.37V28.9519H475.629ZM291.866 28.9519V72.1535H305.582V40.2751H317.695C318.357 36.4264 318.988 32.7448 319.632 28.9519H291.866ZM451.002 7.6728V72.1163H464.798V7.6728H451.002ZM540.655 43.9443C540.569 40.3927 539.64 36.9029 537.412 33.9205C534.33 29.7996 529.811 28.5744 525.039 28.197C516.789 27.5535 508.699 28.7167 500.703 30.672C499.403 30.9876 499.1 31.5259 499.106 32.7758C499.155 45.386 499.131 57.9963 499.131 70.6066V72.172H513.137V41.3889C513.137 40.634 512.951 39.7368 514.121 39.6935C516.554 39.6068 519.005 39.3346 521.406 39.5512C524.241 39.7925 525.974 41.6797 526.389 44.4703C526.593 45.8749 526.717 47.3042 526.723 48.7211C526.748 55.9544 526.735 63.2001 526.735 70.4333V72.1473H540.668C540.736 71.9369 540.791 71.8379 540.791 71.7327C540.773 62.4699 540.872 53.2009 540.655 43.9443ZM282.787 43.4865C282.539 35.9624 278.281 31.0494 271.008 28.9952C267.171 27.9123 263.228 27.8195 259.31 28.1846C254.229 28.6549 249.302 29.8057 244.524 32.0333C245.861 35.6221 247.16 39.1366 248.448 42.5955C248.733 42.5955 248.856 42.6264 248.949 42.5893C249.308 42.4469 249.655 42.2737 250.014 42.1252C253.87 40.4855 257.85 39.4707 262.095 39.6564C266.508 39.8482 269.096 42.515 268.669 46.5369C268.347 46.4936 268.031 46.4627 267.715 46.4008C262.677 45.3427 257.621 45.0395 252.564 46.2461C242.704 48.616 239.993 56.1834 242.382 63.8188C244.177 69.5794 249.048 71.7884 254.582 72.9022C260.053 74.0036 265.518 73.391 270.959 72.7104C274.945 72.2154 278.887 71.4048 282.681 70.7613C282.842 70.3281 282.917 70.2291 282.917 70.124C282.904 61.2448 283.102 52.3594 282.805 43.4865H282.787ZM268.898 61.7089C265.543 62.1791 262.213 62.6308 258.871 62.0059C256.903 61.6346 255.733 60.0877 255.782 58.2809C255.826 56.4804 257.169 54.952 259.323 54.8283C262.454 54.6488 265.586 54.785 268.898 54.785V61.7089ZM441.866 42.7501C441.588 35.5602 436.42 30.2327 429.283 28.7724C423.868 27.6648 418.483 27.8133 413.141 29.0075C409.948 29.7253 406.828 30.8019 403.56 31.7548C405.039 35.6901 406.352 39.1861 407.695 42.7563C408.307 42.4964 408.71 42.3294 409.112 42.1561C413.018 40.4731 417.059 39.4583 421.348 39.6687C425.712 39.8791 428.126 42.4098 427.847 46.4132C425.105 46.11 422.475 45.6026 419.838 45.5779C417.146 45.5593 414.404 45.7697 411.767 46.2956C407.62 47.1433 404.068 49.1233 402.093 53.0772C398.243 60.7745 402.199 69.5856 410.635 72.1287C415.091 73.4776 419.659 73.8736 424.27 73.2672C429.741 72.5433 435.213 71.708 440.672 70.8788C441.365 70.7736 442.194 70.7241 442.176 69.5609C442.064 60.6198 442.213 51.6788 441.86 42.7563L441.866 42.7501ZM428.095 62.0244C424.815 62.0368 421.522 62.2162 418.26 62.0059C416.137 61.8697 414.942 60.2424 414.955 58.3552C414.967 56.5051 416.242 54.9768 418.409 54.8407C421.584 54.6488 424.784 54.7973 428.089 54.7973V62.0244H428.095ZM234.293 48.4798C234.268 46.0295 234.051 43.5421 233.556 41.1476C231.6 31.7239 224.99 27.4978 215.353 28.3702C212.469 28.6363 209.64 29.4654 206.676 30.0594V7.68518H192.811V72.1597H206.663V70.3034C206.663 61.2015 206.7 52.0996 206.626 42.9976C206.614 41.6116 207.047 40.9681 208.353 40.7825C210.204 40.5041 212.054 40.0585 213.911 39.9843C217.03 39.8544 218.962 41.3022 219.723 44.2847C220.113 45.8006 220.323 47.4094 220.342 48.981C220.404 56.1091 220.367 63.2372 220.367 70.3653V72.1287H234.33C234.33 64.1591 234.392 56.3257 234.299 48.486L234.293 48.4798ZM578.862 46.0852C584.755 40.5721 590.616 35.0837 596.483 29.6077C596.304 29.354 596.124 29.1127 595.945 28.859C590.48 28.859 585.002 28.8467 579.537 28.89C579.073 28.8962 578.503 29.2612 578.157 29.6201C573.496 34.4526 568.86 39.3098 564.212 44.1547C564.094 44.2847 563.896 44.3589 563.445 44.6435V7.67899H549.822V72.172H563.537C563.537 69.2082 563.525 66.3186 563.55 63.4228C563.556 62.8412 563.537 62.0615 563.884 61.7212C565.889 59.7041 568.006 57.7859 570.179 55.744C570.5 56.1277 570.958 56.5917 571.324 57.1177C574.096 61.0839 577.135 64.8955 579.487 69.0844C580.954 71.7018 582.533 72.5247 585.398 72.3082C588.951 72.0421 592.535 72.2463 596.292 72.2463C596.1 71.7698 596.019 71.5162 595.902 71.281C591.352 62.3338 585.473 54.259 578.862 46.0791V46.0852ZM184.833 45.516C183.342 36.4203 177.425 31.2969 168.629 29.1251C162.651 27.6463 156.622 28.1289 150.637 29.0014C147.227 29.4964 143.86 30.3069 140.523 30.969V89.9551H154.45V69.5485C159.896 70.6066 165.052 70.4705 170.152 69.0906C181.912 65.9102 186.492 55.5955 184.833 45.516ZM165.002 57.557C161.827 58.6089 158.584 58.5965 155.328 58.0458C154.994 57.9839 154.499 57.4518 154.487 57.1362C154.437 51.5551 154.456 45.98 154.456 40.2875C158.176 39.91 161.753 39.5883 165.256 40.7825C169.094 42.0819 171.068 44.9591 171.037 49.0553C171.006 53.2504 168.846 56.2885 165.002 57.557ZM393.601 55.4099C393.515 50.9177 393.558 46.3946 392.921 41.9705C391.763 33.9947 386.96 28.3826 377.385 28.0608C371.895 27.8752 366.721 28.9704 361.8 31.3836C361.342 31.6063 360.488 31.563 360.067 31.2784C357.134 29.2984 353.81 28.463 350.375 28.197C342.669 27.5844 335.136 28.7539 327.697 30.6287C326.453 30.9443 326.063 31.4516 326.075 32.7386C326.131 45.3489 326.106 57.9654 326.106 70.5818C326.106 71.1078 326.162 71.6337 326.187 72.1659H340.051V39.941C342 39.8358 343.709 39.6625 345.411 39.6749C349.36 39.6997 351.705 41.6488 352.436 45.5098C352.677 46.7906 352.758 48.1148 352.764 49.4265C352.795 56.3937 352.776 63.3548 352.776 70.322V72.1535H366.715C366.739 71.677 366.783 71.3058 366.783 70.9345C366.783 63.0887 366.783 55.249 366.764 47.4032C366.764 46.4194 366.77 45.417 366.622 44.4455C366.09 40.8815 366.071 40.8877 369.741 39.9657C369.902 39.9286 370.051 39.8482 370.212 39.8049C374.631 38.7468 378.561 41.2837 379.273 45.7202C379.483 47.0691 379.595 48.4489 379.601 49.8163C379.626 56.666 379.613 63.528 379.613 70.3838C379.62 70.9716 379.669 71.5533 379.694 72.1411H393.632C393.632 66.4918 393.713 60.954 393.608 55.4285L393.601 55.4099Z" fill="#1B3C6F"/>
<path d="M340.05 39.9349V72.1598H326.186C326.161 71.6338 326.105 71.1017 326.105 70.5757C326.105 57.9593 326.124 45.3428 326.074 32.7326C326.074 31.4517 326.452 30.9382 327.696 30.6288C335.148 28.7478 342.674 27.5783 350.374 28.1909C353.809 28.4693 357.133 29.2923 360.066 31.2785C360.487 31.5631 361.335 31.6064 361.806 31.3775C366.726 28.9705 371.9 27.8691 377.384 28.0547C386.959 28.3765 391.762 33.9886 392.92 41.9582C393.557 46.3823 393.514 50.9116 393.6 55.3976C393.706 60.9293 393.625 66.461 393.625 72.1103H379.687C379.662 71.5224 379.612 70.9408 379.612 70.353C379.612 63.5033 379.625 56.6413 379.594 49.7855C379.594 48.418 379.489 47.0382 379.266 45.6893C378.554 41.2528 374.624 38.7159 370.205 39.774C370.044 39.8111 369.889 39.8916 369.734 39.9349C366.058 40.8568 366.082 40.8506 366.615 44.4271C366.763 45.3985 366.757 46.3947 366.757 47.3847C366.769 55.2306 366.776 63.0702 366.776 70.9161C366.776 71.2935 366.738 71.6709 366.701 72.135H352.763V70.3035C352.763 63.3363 352.775 56.3753 352.75 49.4081C352.75 48.1025 352.664 46.7722 352.422 45.4913C351.698 41.6303 349.346 39.6812 345.404 39.6564C343.702 39.6441 341.993 39.8173 340.044 39.9225L340.05 39.9349Z" fill="#1B3C6F"/>
<path d="M184.833 45.5159C183.342 36.4202 177.425 31.2969 168.629 29.125C162.651 27.6462 156.622 28.1288 150.637 29.0013C147.227 29.4963 143.86 30.3069 140.523 30.9689V89.9551H154.45V69.5485C159.896 70.6065 165.052 70.4704 170.152 69.0906C181.912 65.9102 186.492 55.5955 184.833 45.5159ZM165.002 57.5569C161.827 58.6088 158.584 58.5965 155.328 58.0458C154.994 57.9839 154.499 57.4517 154.487 57.1362C154.437 51.555 154.456 45.98 154.456 40.2874C158.176 39.91 161.753 39.5882 165.256 40.7824C169.094 42.0818 171.068 44.959 171.037 49.0552C171.006 53.2504 168.846 56.2885 165.002 57.5569Z" fill="#1B3C6F"/>
<path d="M596.484 29.6075C590.617 35.0959 584.756 40.5781 578.863 46.085C585.473 54.265 591.353 62.3398 595.903 71.2746C596.02 71.5098 596.101 71.7634 596.293 72.2399C592.536 72.2399 588.952 72.0357 585.399 72.3079C582.527 72.5245 580.943 71.6954 579.488 69.0842C577.136 64.889 574.097 61.0775 571.325 57.1175C570.959 56.5915 570.501 56.1274 570.173 55.7438C568.001 57.7857 565.89 59.6977 563.879 61.7148C563.532 62.0551 563.551 62.8348 563.544 63.4164C563.514 66.306 563.532 69.2018 563.532 72.1718H549.816V7.67877H563.439V44.6557C563.891 44.3711 564.083 44.2968 564.207 44.1669C568.855 39.322 573.485 34.4586 578.151 29.6261C578.498 29.2672 579.061 28.9021 579.532 28.9021C584.997 28.8465 590.475 28.8712 595.94 28.8712C596.119 29.1125 596.299 29.3662 596.478 29.6075H596.484Z" fill="#1B3C6F"/>
<path d="M206.653 72.1597H192.801V7.69135H206.659V30.0594C209.63 29.4654 212.458 28.6363 215.336 28.3702C224.979 27.4916 231.583 31.7239 233.539 41.1475C234.041 43.5421 234.251 46.0357 234.276 48.4798C234.369 56.3133 234.307 64.1529 234.307 72.1225H220.344V70.3591C220.344 63.231 220.375 56.1029 220.319 48.9748C220.306 47.4032 220.096 45.8006 219.706 44.2785C218.932 41.296 217.001 39.8482 213.894 39.9719C212.031 40.0523 210.187 40.4978 208.336 40.7701C207.03 40.9619 206.597 41.6054 206.609 42.9853C206.69 52.0872 206.646 61.1891 206.646 70.291V72.1535L206.653 72.1597Z" fill="#1B3C6F"/>
<path d="M441.869 42.7499C441.59 35.56 436.422 30.2325 429.286 28.7722C423.87 27.6646 418.485 27.8131 413.144 29.0073C409.95 29.7251 406.831 30.8017 403.563 31.7546C405.042 35.6899 406.354 39.1859 407.697 42.7561C408.31 42.4962 408.712 42.3292 409.114 42.1559C413.02 40.4729 417.062 39.4581 421.351 39.6685C425.714 39.8789 428.128 42.4096 427.85 46.413C425.108 46.1098 422.477 45.6024 419.841 45.5777C417.148 45.5591 414.406 45.7695 411.77 46.2954C407.623 47.1431 404.07 49.1231 402.096 53.077C398.246 60.7743 402.201 69.5854 410.637 72.1285C415.093 73.4774 419.661 73.8734 424.272 73.267C429.744 72.5431 435.215 71.7078 440.674 70.8786C441.367 70.7734 442.197 70.7239 442.178 69.5607C442.067 60.6196 442.215 51.6786 441.862 42.7561L441.869 42.7499ZM428.097 62.0242C424.817 62.0366 421.524 62.216 418.262 62.0057C416.139 61.8695 414.945 60.2422 414.957 58.355C414.97 56.5049 416.245 54.9766 418.411 54.8405C421.586 54.6486 424.786 54.7971 428.091 54.7971V62.0242H428.097Z" fill="#1B3C6F"/>
<path d="M282.786 43.4864C282.538 35.9623 278.28 31.0494 271.007 28.9951C267.17 27.9123 263.227 27.8195 259.309 28.1846C254.228 28.6548 249.301 29.8057 244.523 32.0332C245.86 35.622 247.159 39.1366 248.447 42.5954C248.731 42.5954 248.855 42.6263 248.948 42.5892C249.307 42.4469 249.654 42.2737 250.013 42.1251C253.869 40.4854 257.848 39.4707 262.094 39.6563C266.507 39.8481 269.095 42.515 268.668 46.5369C268.346 46.4936 268.03 46.4626 267.714 46.4008C262.676 45.3427 257.619 45.0395 252.563 46.2461C242.703 48.6159 239.992 56.1833 242.381 63.8188C244.176 69.5794 249.047 71.7884 254.58 72.9021C260.052 74.0035 265.517 73.3909 270.958 72.7103C274.944 72.2153 278.886 71.4047 282.68 70.7612C282.841 70.3281 282.915 70.2291 282.915 70.1239C282.903 61.2447 283.101 52.3594 282.804 43.4864H282.786ZM268.897 61.7088C265.542 62.1791 262.212 62.6308 258.87 62.0058C256.901 61.6346 255.732 60.0877 255.781 58.2809C255.825 56.4803 257.168 54.952 259.322 54.8282C262.453 54.6488 265.585 54.7849 268.897 54.7849V61.7088Z" fill="#1B3C6F"/>
<path d="M513.131 72.1722H499.13V70.6067C499.13 57.9965 499.149 45.3862 499.105 32.7759C499.105 31.526 499.409 30.9939 500.702 30.6783C508.705 28.7169 516.795 27.5598 525.039 28.2033C529.817 28.5746 534.329 29.8059 537.418 33.9268C539.646 36.9092 540.574 40.399 540.661 43.9507C540.871 53.2135 540.772 62.4763 540.797 71.7452C540.797 71.8442 540.735 71.9494 540.673 72.1536H526.735V70.4397C526.735 63.2064 526.753 55.9669 526.723 48.7275C526.723 47.3105 526.599 45.8812 526.388 44.4766C525.98 41.686 524.253 39.805 521.412 39.5575C519.011 39.3471 516.56 39.6194 514.127 39.6998C512.957 39.7431 513.137 40.6341 513.137 41.3952V72.1784H513.131V72.1722Z" fill="#1B3C6F"/>
<path d="M451 7.67877H464.796V72.1223H451V7.67877Z" fill="#1B3C6F"/>
<path d="M291.867 28.952H319.633C318.989 32.7388 318.352 36.4266 317.695 40.2752H305.583V72.1536H291.867V28.952Z" fill="#1B3C6F"/>
<path d="M475.633 28.9581H489.373V72.1164H475.633V28.9581Z" fill="#1B3C6F"/>
<path d="M482.458 22.8879C477.506 22.8818 474.108 19.6023 474.133 14.8379C474.158 10.1972 477.772 6.78169 482.594 6.84975C487.366 6.91782 490.851 10.3086 490.857 14.8936C490.857 19.59 487.378 22.9003 482.451 22.8879H482.458Z" fill="#1B3C6F"/>
<defs>
<linearGradient id="paint0_linear_6701_6373" x1="86.039" y1="109.656" x2="21.5082" y2="-2.11446" gradientUnits="userSpaceOnUse">
<stop stop-color="#2DAB66"/>
<stop offset="0.53" stop-color="#312782"/>
<stop offset="1" stop-color="#35A8E0"/>
</linearGradient>
</defs>
</svg>
